<svg id="visual" viewBox="0 0 900 600" width="900" height="600" xmlns="http://www.w3.org/2000/svg"
    xmlns:xlink="http://www.w3.org/1999/xlink" version="1.1">
    <rect x="0" y="0" width="900" height="600" fill="#FF0066"></rect>
    <g transform="translate(401.05493762926847 300.1670377415869)">
        <path
            d="M79.4 -94.8C114.4 -101 162.2 -98.5 200.7 -74.1C239.1 -49.7 268 -3.5 257.8 34C247.6 71.5 198.2 100.2 157.2 122.1C116.3 143.9 83.6 158.8 55.1 149.8C26.7 140.7 2.3 107.8 -39 107.3C-80.4 106.9 -138.8 138.9 -156.1 129.4C-173.4 120 -149.6 69 -122.4 37.9C-95.2 6.9 -64.6 -4.4 -66.1 -42.3C-67.6 -80.2 -101.1 -144.8 -95.4 -152.1C-89.7 -159.3 -44.9 -109.2 -11.4 -91.5C22.2 -73.8 44.3 -88.6 79.4 -94.8"
            fill="#BB004B"></path>
    </g>
</svg>