<svg id="visual" viewBox="0 0 900 600" width="900" height="600" xmlns="http://www.w3.org/2000/svg"
    xmlns:xlink="http://www.w3.org/1999/xlink" version="1.1">
    <g transform="translate(401.05493762926847 300.1670377415869)">
        <path
            d="M79.4 -94.8C114.4 -101 162.2 -98.5 200.7 -74.1C239.1 -49.7 268 -3.5 257.8 34C247.6 71.5 198.2 100.2 157.2 122.1C116.3 143.9 83.6 158.8 55.1 149.8C26.7 140.7 2.3 107.8 -39 107.3C-80.4 106.9 -138.8 138.9 -156.1 129.4C-173.4 120 -149.6 69 -122.4 37.9C-95.2 6.9 -64.6 -4.4 -66.1 -42.3C-67.6 -80.2 -101.1 -144.8 -95.4 -152.1C-89.7 -159.3 -44.9 -109.2 -11.4 -91.5C22.2 -73.8 44.3 -88.6 79.4 -94.8"
            fill="#BB004B"></path>
    </g>
    <g transform="translate(486.6425012549157 338.23903898840894)">
        <path
            d="M79.8 -105.2C104.5 -55.2 126.2 -27.6 128.4 2.1C130.5 31.8 113 63.6 88.3 82.4C63.6 101.1 31.8 106.8 -17.4 124.3C-66.7 141.7 -133.4 170.9 -168.7 152.2C-204.1 133.4 -208 66.7 -195.1 13C-182.1 -40.8 -152.2 -81.6 -116.9 -131.6C-81.6 -181.6 -40.8 -240.8 -6.6 -234.2C27.6 -227.6 55.2 -155.2 79.8 -105.2"
            fill="#AA09CB"></path>
    </g>
</svg>