<?xml version="1.0" encoding="UTF-8" standalone="no"?>
<!-- Created with Inkscape (http://www.inkscape.org/) -->

<svg
   version="1.1"
   id="svg145"
   width="656"
   height="656"
   viewBox="0 0 656 656"
   sodipodi:docname="bird-logo-clip-art-pdv.svg"
   inkscape:version="1.2 (dc2aedaf03, 2022-05-15)"
   xmlns:inkscape="http://www.inkscape.org/namespaces/inkscape"
   xmlns:sodipodi="http://sodipodi.sourceforge.net/DTD/sodipodi-0.dtd"
   xmlns="http://www.w3.org/2000/svg"
   xmlns:svg="http://www.w3.org/2000/svg">
  <defs
     id="defs149">
    <clipPath
       clipPathUnits="userSpaceOnUse"
       id="clipPath161">
      <path
         d="M 0,492 H 492 V 0 H 0 Z"
         id="path159" />
    </clipPath>
  </defs>
  <sodipodi:namedview
     id="namedview147"
     pagecolor="#ffffff"
     bordercolor="#000000"
     borderopacity="0.25"
     inkscape:showpageshadow="2"
     inkscape:pageopacity="0.0"
     inkscape:pagecheckerboard="0"
     inkscape:deskcolor="#d1d1d1"
     showgrid="false"
     inkscape:zoom="1.2759146"
     inkscape:cx="328"
     inkscape:cy="327.60812"
     inkscape:window-width="1920"
     inkscape:window-height="1017"
     inkscape:window-x="-8"
     inkscape:window-y="-8"
     inkscape:window-maximized="1"
     inkscape:current-layer="g153">
    <inkscape:page
       x="0"
       y="0"
       id="page151"
       width="656"
       height="656" />
  </sodipodi:namedview>
  <g
     id="g153"
     inkscape:groupmode="layer"
     inkscape:label="Page 1"
     transform="matrix(1.3333333,0,0,-1.3333333,0,656)">
    <g
       id="g155">
      <g
         id="g157"
         clip-path="url(#clipPath161)">
        <g
           id="g163"
           transform="translate(220.8232,292.8726)">
          <path
             d="m 0,0 c -0.552,-3.101 1.677,-3.718 2.473,-2.344 0.758,1.593 2.131,3.761 2.957,5.322 1.705,3.217 3.579,6.346 5.677,9.308 -1.892,-3.1 -9.788,-21.165 -9.788,-21.165 -1.897,-4.85 0.982,-8.331 2.34,-6.759 0,0 7.998,17.892 9.465,21.036 -1.237,-3.241 -7.726,-22.16 -7.726,-22.16 -0.42,-5.406 4.483,-7.326 5.772,-5.763 0.221,0.814 5.015,18.726 5.584,20.353 -0.449,-1.662 -2.812,-18.769 -2.673,-20.539 0.272,-2.512 1.475,-3.494 2.25,-3.816 2.172,-0.902 7.174,-1.022 8.15,-0.71 l 1.095,24.723 0.179,-24.723 c 0.975,-0.312 5.978,-0.192 8.15,0.71 0.776,0.322 1.978,1.304 2.249,3.816 0.14,1.77 -2.222,18.877 -2.672,20.539 0.569,-1.627 5.363,-19.539 5.584,-20.353 1.289,-1.563 6.192,0.357 5.771,5.763 0,0 -6.487,18.919 -7.725,22.16 1.466,-3.144 9.465,-21.036 9.465,-21.036 1.358,-1.572 4.236,1.909 2.339,6.759 0,0 -7.896,18.065 -9.788,21.165 2.099,-2.962 3.973,-6.091 5.678,-9.308 0.826,-1.561 2.198,-3.729 2.957,-5.322 0.796,-1.374 3.024,-0.757 2.472,2.344 -2.884,11.914 -14.304,21.398 -20.233,25.508 -1.057,6.384 -4.894,11.721 -4.894,11.721 0,0 -3.818,-5.337 -4.875,-11.721 C 14.306,21.398 2.886,11.914 0,0 m 232.191,15.041 c 1.475,-3.084 2.154,-6.692 -1.427,-11.238 -5.393,-2.153 -10.832,-4.203 -16.317,-6.133 -16.766,-5.897 -33.902,-10.804 -51.271,-14.705 -17.37,-3.894 -34.983,-6.808 -52.738,-8.426 -17.747,-1.684 -35.639,-1.999 -53.466,-0.873 17.788,-1.622 35.726,-1.805 53.583,-0.612 17.864,1.13 35.646,3.564 53.233,6.997 17.588,3.44 34.987,7.901 52.082,13.385 4.628,1.485 9.23,3.054 13.808,4.697 0.273,-4.227 -1.219,-8.478 -4.336,-12.002 -1.743,-0.595 -3.465,-1.248 -5.248,-1.747 -3.785,-1.129 -7.549,-2.333 -11.397,-3.287 l -5.745,-1.518 -5.794,-1.349 c -15.464,-3.563 -31.169,-6.21 -46.961,-8.143 -15.796,-1.923 -31.698,-3.15 -47.631,-3.424 -15.931,-0.305 -31.89,0.192 -47.788,1.689 15.841,-1.99 31.809,-2.987 47.796,-3.178 15.989,-0.222 31.993,0.512 47.936,1.951 15.943,1.449 31.837,3.621 47.588,6.737 l 5.905,1.184 5.875,1.357 c 3.755,0.809 7.464,1.854 11.186,2.846 -0.236,-3.725 -1.736,-6.805 -3.894,-9.049 -1.94,-0.751 -3.964,-1.412 -6.017,-1.995 -3.307,-0.942 -6.688,-1.752 -10.111,-2.431 -6.838,-1.388 -13.792,-2.415 -20.775,-3.23 -13.975,-1.621 -28.076,-2.472 -42.189,-2.795 -14.115,-0.322 -28.255,-0.124 -42.372,0.629 -14.12,0.727 -28.216,2.052 -42.237,4.015 13.943,-2.454 28.01,-4.277 42.133,-5.501 14.122,-1.249 28.298,-1.948 42.493,-2.121 14.195,-0.173 28.41,0.183 42.613,1.328 7.102,0.576 14.198,1.369 21.282,2.549 2.612,0.425 5.218,0.925 7.822,1.507 -0.943,-4.68 -4.293,-8.649 -10.413,-11.75 -2.417,-1.037 -5.346,-1.703 -8.295,-2.154 -2.974,-0.439 -6.007,-0.767 -9.074,-0.943 -6.127,-0.399 -12.332,-0.415 -18.535,-0.295 -12.414,0.27 -24.856,1.162 -37.265,2.375 -12.414,1.213 -24.803,2.767 -37.155,4.602 -12.351,1.833 -24.664,3.969 -36.916,6.444 12.144,-2.959 24.376,-5.586 36.667,-7.913 12.293,-2.329 24.645,-4.379 37.054,-6.091 12.41,-1.713 24.876,-3.109 37.434,-3.881 6.283,-0.371 12.584,-0.61 18.945,-0.448 1.786,0.032 3.579,0.117 5.379,0.244 -3.743,-6.79 -11.65,-11.977 -25.831,-13.161 -4.947,0.611 -9.907,1.451 -14.854,2.388 -10.788,2.063 -21.53,4.58 -32.232,7.256 -21.407,5.37 -42.671,11.407 -63.872,17.647 20.901,-7.187 41.877,-14.177 63.084,-20.521 10.607,-3.162 21.268,-6.173 32.086,-8.752 2.237,-0.528 4.482,-1.033 6.736,-1.515 -1.363,-6.11 -9.864,-9.229 -23.717,-8.88 -8.549,3.5 -17.036,7.225 -25.495,11.013 -9.022,4.049 -18.014,8.183 -27.003,12.329 -8.989,4.142 -17.969,8.314 -27.001,12.366 8.817,-4.5 17.571,-9.115 26.345,-13.702 8.769,-4.593 17.547,-9.175 26.373,-13.679 6.821,-3.476 13.666,-6.913 20.585,-10.233 -4.835,-4.221 -13.539,-5.563 -22.699,-4.236 -2.551,1.806 -5.099,3.617 -7.642,5.435 -14.866,10.657 -29.628,21.476 -44.272,32.456 14.029,-11.759 28.187,-23.366 42.473,-34.829 1.679,-1.344 3.367,-2.676 5.049,-4.016 -3.689,-2.806 -10.098,-3.834 -17.495,-2.183 -4.895,5.389 -9.761,10.805 -14.505,16.322 -2.894,3.388 -5.791,6.776 -8.56,10.267 -2.809,3.461 -5.465,7.036 -7.9,10.779 2.22,-3.868 4.688,-7.609 7.306,-11.229 2.58,-3.649 5.29,-7.203 7.999,-10.756 4.02,-5.239 8.141,-10.397 12.295,-15.528 -2.419,-2.595 -7.851,-3.586 -13.7,-0.41 -1.879,-0.133 -15.649,29.926 -17.567,29.814 l -0.603,3.196 c -5.221,-14.99 22.913,-68.215 22.485,-71.967 -0.266,-1.508 -2.53,-3.418 -4.817,-3.623 l -17.554,42.084 14.71,-44.629 c -0.673,-4.598 -2.879,-8.008 -6.878,-8.326 l -14.933,52.955 11.362,-57.717 c -1.131,-5.045 -4.069,-8.84 -8.903,-8.275 l -9.558,65.992 4.182,-68.787 c -2.023,-1.205 -4.124,-1.906 -6.331,-1.877 -1.428,0.018 -2.955,0.527 -4.553,1.395 l -0.398,69.269 -5.22,-66.31 c -3.498,-0.805 -7.829,1.355 -9.816,7.638 l 7.936,58.672 -12.01,-54.135 c -3.197,0.711 -6.075,3.377 -7.855,8.26 l 12.766,45.875 -15.962,-43.285 c -3.255,0.264 -6.084,2.848 -5.93,5.756 -2.2,4.076 28.136,58.948 19.393,70.848 -1.918,0.112 -15.69,-29.946 -17.567,-29.813 -5.849,-3.178 -11.281,-2.186 -13.7,0.41 4.153,5.131 8.275,10.288 12.294,15.527 2.71,3.554 5.42,7.107 8,10.757 2.618,3.619 5.085,7.36 7.306,11.228 -2.435,-3.742 -5.091,-7.318 -7.901,-10.78 -2.768,-3.489 -5.666,-6.878 -8.559,-10.265 -4.745,-5.518 -9.61,-10.934 -14.505,-16.322 -7.398,-1.651 -13.806,-0.623 -17.495,2.183 1.681,1.34 3.37,2.672 5.049,4.016 14.286,11.462 28.444,23.07 42.473,34.829 -14.644,-10.981 -29.406,-21.799 -44.272,-32.456 -2.543,-1.818 -5.091,-3.629 -7.641,-5.436 -9.16,-1.326 -17.866,0.016 -22.7,4.237 6.919,3.319 13.764,6.756 20.585,10.232 8.825,4.505 17.603,9.087 26.373,13.679 8.773,4.588 17.527,9.203 26.345,13.702 -9.033,-4.052 -18.012,-8.224 -27.002,-12.366 -8.988,-4.146 -17.98,-8.281 -27.003,-12.329 -8.459,-3.788 -16.946,-7.514 -25.495,-11.014 -13.852,-0.35 -22.353,2.771 -23.717,8.882 2.254,0.482 4.5,0.986 6.737,1.514 10.818,2.58 21.478,5.589 32.086,8.753 21.207,6.345 42.183,13.335 63.083,20.519 -21.2,-6.239 -42.465,-12.276 -63.871,-17.647 -10.702,-2.674 -21.445,-5.192 -32.233,-7.254 -4.946,-0.938 -9.907,-1.777 -14.852,-2.388 -14.182,1.183 -22.089,6.37 -25.833,13.161 1.8,-0.127 3.594,-0.213 5.38,-0.244 6.36,-0.162 12.662,0.077 18.944,0.447 12.559,0.774 25.025,2.168 37.435,3.882 12.408,1.712 24.761,3.762 37.053,6.091 12.292,2.326 24.524,4.953 36.668,7.911 -12.252,-2.472 -24.565,-4.61 -36.917,-6.443 -12.351,-1.835 -24.741,-3.388 -37.154,-4.601 -12.408,-1.214 -24.852,-2.106 -37.266,-2.375 -6.203,-0.12 -12.407,-0.106 -18.534,0.295 -3.067,0.175 -6.1,0.503 -9.074,0.942 -2.948,0.451 -5.88,1.119 -8.297,2.154 -6.118,3.101 -9.469,7.07 -10.412,11.751 2.605,-0.582 5.211,-1.082 7.822,-1.507 7.084,-1.18 14.181,-1.972 21.282,-2.551 14.203,-1.144 28.419,-1.5 42.613,-1.327 14.195,0.173 28.372,0.871 42.494,2.12 14.123,1.226 28.191,3.049 42.133,5.501 -14.021,-1.963 -28.117,-3.288 -42.236,-4.014 -14.119,-0.752 -28.259,-0.951 -42.374,-0.629 -14.113,0.323 -28.213,1.175 -42.188,2.795 -6.984,0.815 -13.938,1.842 -20.776,3.231 -3.422,0.678 -6.803,1.487 -10.111,2.43 -2.052,0.583 -4.076,1.244 -6.017,1.995 -2.158,2.244 -3.658,5.324 -3.894,9.051 3.723,-0.993 7.432,-2.038 11.187,-2.847 l 5.875,-1.358 5.905,-1.183 c 15.75,-3.116 31.644,-5.287 47.588,-6.737 15.942,-1.44 31.946,-2.174 47.936,-1.951 15.986,0.191 31.956,1.187 47.794,3.177 -15.896,-1.497 -31.855,-1.993 -47.786,-1.688 -15.933,0.273 -31.837,1.5 -47.631,3.423 -15.793,1.932 -31.497,4.581 -46.961,8.144 l -5.794,1.35 -5.745,1.516 c -3.848,0.955 -7.612,2.159 -11.397,3.287 -1.784,0.5 -3.505,1.153 -5.249,1.747 -3.116,3.524 -4.608,7.775 -4.336,12.003 4.579,-1.644 9.181,-3.212 13.808,-4.699 17.094,-5.482 34.494,-9.944 52.082,-13.384 17.588,-3.432 35.37,-5.868 53.234,-6.997 17.856,-1.193 35.795,-1.009 53.583,0.612 -17.828,-1.125 -35.719,-0.81 -53.467,0.873 -17.754,1.619 -35.367,4.533 -52.737,8.427 -17.369,3.901 -34.505,8.808 -51.271,14.705 -5.484,1.93 -10.924,3.98 -16.317,6.132 -3.581,4.545 -2.903,8.155 -1.427,11.238 14.233,-6.118 28.714,-11.654 43.439,-16.452 10.49,-3.418 21.096,-6.471 31.802,-9.113 10.706,-2.645 21.53,-4.796 32.413,-6.512 10.886,-1.693 21.838,-2.996 32.834,-3.611 10.99,-0.647 22.005,-0.764 32.995,-0.327 -10.998,-0.188 -21.993,0.177 -32.943,1.07 -10.952,0.861 -21.837,2.407 -32.639,4.335 -10.798,1.956 -21.517,4.337 -32.104,7.209 -10.587,2.868 -21.059,6.139 -31.403,9.77 -15.345,5.386 -30.398,11.57 -45.152,18.396 -1.488,5.845 0.02,9.595 2.299,11.313 16.754,-16.332 55.34,-29.314 98.464,-35.27 -0.976,0.322 -1.954,0.639 -2.926,0.97 -12.86,4.402 -25.425,9.704 -37.298,16.295 -5.923,3.312 -11.667,6.969 -16.991,11.173 -1.336,1.042 -2.6,2.181 -3.896,3.265 l -1.843,1.753 c -0.615,0.582 -1.234,1.159 -1.794,1.795 l -1.722,1.864 c -0.568,0.625 -1.066,1.314 -1.601,1.965 -1.103,1.28 -1.956,2.751 -2.907,4.132 1.055,-1.314 2.002,-2.701 3.192,-3.891 0.578,-0.608 1.116,-1.247 1.723,-1.824 l 1.835,-1.712 c 0.594,-0.584 1.248,-1.108 1.896,-1.636 l 1.936,-1.588 c 1.359,-0.975 2.675,-1.998 4.064,-2.924 5.53,-3.739 11.423,-6.905 17.465,-9.72 12.107,-5.596 24.79,-9.876 37.667,-13.245 12.879,-3.347 25.969,-5.881 39.109,-7.34 6.566,-0.729 13.143,-1.201 19.676,-1.314 6.361,-0.108 12.694,0.125 18.809,0.905 0.29,1.207 0.644,2.394 1.071,3.546 1.559,4.219 4.007,8.013 7.03,11.142 3.017,3.149 6.639,5.572 10.451,7.387 C 8.009,17.5 4.879,14.634 2.498,11.274 0.106,7.932 -1.574,4.163 -2.388,0.279 c -0.756,-3.583 -0.766,-7.261 -0.04,-10.691 0.978,-3.902 2.731,-7.015 4.721,-9.454 0.239,-0.261 0.482,-0.52 0.735,-0.764 l -0.049,-0.042 c 3.118,-3.5 6.637,-5.454 8.605,-6.259 0.356,-0.145 3.745,-1.392 4.777,-1.691 4.608,-1.187 13.404,-1.101 18.368,-0.17 0.621,0 4.991,2.173 5.321,2.357 1.61,0.903 4.389,2.808 6.957,5.785 l -0.024,0.02 c 0.118,0.114 0.227,0.238 0.342,0.357 2.868,3.45 5.396,8.261 5.611,14.544 0.012,0 0.024,-0.001 0.036,-0.003 0.037,1.994 -0.153,4.017 -0.573,6.011 -0.814,3.884 -2.494,7.653 -4.885,10.995 -2.381,3.36 -5.513,6.226 -9.025,8.582 3.814,-1.815 7.436,-4.238 10.452,-7.387 3.023,-3.129 5.471,-6.923 7.03,-11.142 0.435,-1.176 0.796,-2.389 1.09,-3.622 5.917,-0.717 12.033,-0.933 18.174,-0.829 6.534,0.113 13.111,0.585 19.677,1.314 13.139,1.459 26.229,3.993 39.109,7.34 12.877,3.369 25.559,7.649 37.667,13.245 6.042,2.815 11.934,5.981 17.464,9.72 1.389,0.926 2.705,1.949 4.064,2.924 l 1.935,1.588 c 0.649,0.528 1.302,1.052 1.898,1.636 l 1.835,1.712 c 0.606,0.577 1.144,1.216 1.722,1.824 1.191,1.19 2.137,2.577 3.193,3.891 -0.952,-1.381 -1.805,-2.852 -2.908,-4.132 -0.535,-0.651 -1.033,-1.34 -1.6,-1.965 l -1.723,-1.864 c -0.56,-0.636 -1.178,-1.213 -1.794,-1.795 l -1.842,-1.753 c -1.296,-1.084 -2.559,-2.223 -3.897,-3.265 -5.324,-4.204 -11.068,-7.861 -16.99,-11.173 C 161.171,9.532 148.606,4.23 135.746,-0.172 c -5.502,-1.872 -11.062,-3.589 -16.675,-5.147 48.263,4.709 93.05,18.378 111.578,36.437 2.28,-1.718 3.788,-5.467 2.3,-11.312 C 218.195,12.979 203.142,6.796 187.796,1.409 177.452,-2.222 166.98,-5.493 156.394,-8.36 c -10.587,-2.872 -21.307,-5.253 -32.106,-7.209 -10.8,-1.929 -21.686,-3.476 -32.639,-4.335 -10.948,-0.894 -21.943,-1.26 -32.94,-1.07 10.989,-0.437 22.004,-0.32 32.994,0.327 10.996,0.615 21.947,1.918 32.833,3.609 10.885,1.719 21.708,3.868 32.413,6.515 10.706,2.64 21.314,5.693 31.802,9.111 14.726,4.798 29.206,10.334 43.44,16.453"
             style="fill:#000000;fill-opacity:1;fill-rule:nonzero;stroke:none"
             id="path165" />
        </g>
      </g>
    </g>
  </g>
</svg>
