<?xml version="1.0" standalone="no"?>
<!DOCTYPE svg PUBLIC "-//W3C//DTD SVG 20010904//EN"
 "http://www.w3.org/TR/2001/REC-SVG-20010904/DTD/svg10.dtd">
<svg version="1.0" xmlns="http://www.w3.org/2000/svg"
 width="1280.000000pt" height="662.000000pt" viewBox="0 0 1280.000000 662.000000"
 preserveAspectRatio="xMidYMid meet">
<metadata>
Created by potrace 1.15, written by Peter Selinger 2001-2017
</metadata>
<g transform="translate(0.000000,662.000000) scale(0.100000,-0.100000)"
fill="#000000" stroke="none">
<path d="M1503 6602 c-61 -20 -78 -39 -97 -114 l-13 -53 -98 -12 c-114 -14
-146 -24 -240 -71 -165 -81 -369 -236 -526 -399 -79 -82 -97 -105 -102 -138
-4 -22 -4 -49 -1 -61 5 -17 -14 -37 -103 -110 -138 -113 -295 -270 -312 -311
-16 -39 -8 -64 51 -155 21 -33 46 -81 55 -107 36 -107 115 -205 205 -253 36
-19 59 -23 143 -23 55 0 164 6 242 13 78 8 160 11 183 7 36 -6 40 -10 35 -28
-23 -83 -73 -157 -105 -157 -23 0 -85 42 -137 93 -24 22 -46 38 -49 34 -4 -4
-2 -24 4 -44 6 -20 10 -39 8 -41 -6 -6 -59 24 -83 47 -60 56 -20 -59 48 -141
42 -49 42 -50 43 -136 4 -176 87 -275 231 -274 119 0 224 63 305 182 44 65
101 115 173 154 l49 25 50 -25 c81 -41 184 -57 328 -50 l125 6 29 -55 c38 -73
122 -149 231 -210 153 -84 245 -201 323 -408 38 -101 45 -134 66 -322 26 -217
80 -393 168 -543 18 -31 77 -100 130 -153 l96 -97 27 -143 c14 -79 87 -473
161 -875 l135 -732 -50 -100 -50 -99 -73 -11 c-119 -18 -173 -38 -207 -77 -34
-39 -61 -119 -61 -179 0 -45 27 -113 53 -134 9 -8 14 -19 11 -26 -7 -18 102
-114 146 -127 103 -33 460 -17 684 30 93 20 100 24 116 82 43 157 65 494 54
859 -12 426 -10 652 5 755 31 214 82 433 151 648 38 117 43 127 63 122 12 -2
94 -11 182 -20 705 -67 1105 -68 1480 -5 313 53 573 114 1580 370 181 46 245
58 261 51 50 -22 172 -313 319 -761 92 -281 189 -529 337 -860 190 -424 191
-426 186 -489 -10 -119 -93 -264 -256 -446 l-89 -101 -103 -12 c-230 -27 -338
-134 -314 -312 l7 -50 381 0 381 0 37 53 c58 82 137 166 177 186 69 35 201
217 468 644 73 118 76 125 81 194 6 91 -10 150 -54 202 -19 22 -46 64 -59 93
-24 53 -68 222 -79 308 l-6 45 52 -59 c191 -213 434 -581 511 -774 82 -202 74
-402 -22 -554 l-29 -45 -96 -5 c-117 -6 -175 -32 -221 -97 -28 -39 -30 -50
-30 -126 0 -46 3 -86 6 -89 6 -6 558 12 594 19 12 3 38 34 64 76 24 39 93 136
153 216 60 80 120 168 134 196 64 126 123 359 144 575 19 186 0 240 -160 462
-111 154 -120 170 -148 262 -47 153 -74 373 -94 778 -16 332 -16 979 0 1150
15 157 31 261 42 274 21 22 72 -240 150 -769 42 -286 82 -428 170 -611 98
-202 260 -410 427 -546 106 -87 289 -199 391 -240 137 -55 261 -78 429 -78
286 0 508 65 743 218 168 109 348 278 468 441 97 130 107 210 36 276 -32 30
-89 33 -136 9 -73 -38 -225 -164 -381 -315 -184 -179 -220 -203 -360 -239
-257 -65 -501 -51 -753 46 -240 91 -413 291 -515 594 -58 174 -71 267 -99 681
-19 286 -87 687 -165 974 -77 284 -210 465 -467 637 -160 107 -445 233 -606
268 -181 40 -705 121 -1224 189 l-223 30 -770 -6 c-1027 -7 -1712 12 -1910 53
-281 59 -425 78 -725 94 l-195 10 -403 185 c-415 191 -716 323 -812 357 -66
23 -258 54 -670 108 -390 51 -368 47 -375 70 -4 11 -18 34 -32 50 -32 38 -66
39 -139 3 -30 -14 -55 -24 -57 -22 -94 146 -118 158 -234 121z"/>
</g>
</svg>
