<svg id="visual" viewBox="0 0 900 600" width="900" height="600" xmlns="http://www.w3.org/2000/svg" xmlns:xlink="http://www.w3.org/1999/xlink" version="1.1"><rect x="0" y="0" width="900" height="600" fill="#002233"></rect><path d="M0 451L21.5 456.7C43 462.3 86 473.7 128.8 476.2C171.7 478.7 214.3 472.3 257.2 457.5C300 442.7 343 419.3 385.8 405.8C428.7 392.3 471.3 388.7 514.2 402C557 415.3 600 445.7 642.8 466.5C685.7 487.3 728.3 498.7 771.2 494C814 489.3 857 468.7 878.5 458.3L900 448L900 601L878.5 601C857 601 814 601 771.2 601C728.3 601 685.7 601 642.8 601C600 601 557 601 514.2 601C471.3 601 428.7 601 385.8 601C343 601 300 601 257.2 601C214.3 601 171.7 601 128.8 601C86 601 43 601 21.5 601L0 601Z" fill="#0066FF" stroke-linecap="round" stroke-linejoin="miter"></path></svg>