<svg xmlns="http://www.w3.org/2000/svg" width="800" height="800" class="icon flat-line"
    data-name="Flat Line" viewBox="0 0 24 24">
    <g>
        <path
        id="shape1"
        d="M13.38 3C8.25 3 6 6.57 6 10.49v.11a2.4 2.4 0 0 1-2.37 2.47A2.27 2.27 0 0 1 3 13a7 7 0 0 0 3.66 4.53A2 2 0 0 1 10 18.69a17.29 17.29 0 0 0 3.33.3h.71a2 2 0 0 1 3.47-1.27l.13-.05A8.08 8.08 0 0 0 21 11c0-4.49-3-8-7.62-8Z
        M6.66 17.52A7 7 0 0 1 3 13a2.27 2.27 0 0 0 .63.08A2.4 2.4 0 0 0 6 10.6v-.11C6 6.57 8.25 3 13.38 3 18 3 21 6.51 21 11a8.08 8.08 0 0 1-3.39 6.62
        M10 18.69a17.29 17.29 0 0 0 3.33.3h.62
        M18 19a2 2 0 1 1-2-2 2 2 0 0 1 2 2ZM6 19a2 2 0 1 0 2-2 2 2 0 0 0-2 2Z
        M15.95 9h.1
        M11.05 9h-.1"
        style="fill:#2ca9bc;stroke:#000;stroke-linecap:round;stroke-linejoin:round;stroke-width:2" />
    </g>
    <g>
    
        <path
        id="shape2" 
        d="M12,11.5c1.4,0,2.5-1.1,2.5-2.5S13.4,6.5,12,6.5S9.5,7.6,9.5,9S10.6,11.5,12,11.5 M12,2c3.9,0,7,3.1,7,7c0,5.2-7,13-7,13
	S5,14.2,5,9C5,5.1,8.1,2,12,2 M3,9c0,4.5,5.1,10.7,6,11.8L8,22c0,0-7-7.8-7-13c0-3.2,2.1-5.8,5-6.7C4.2,3.9,3,6.3,3,9z M18,2.3
	c2.9,0.9,5,3.5,5,6.7c0,5.2-7,13-7,13l-1-1.2c0.9-1.1,6-7.3,6-11.8C21,6.3,19.8,3.9,18,2.3z"/>
    </g>
</svg>