<?xml version="1.0" encoding="utf-8"?><!-- Uploaded to: SVG Repo, www.svgrepo.com, Generator: SVG Repo Mixer Tools -->
<svg fill="#000000" width="800px" height="800px" viewBox="0 0 24 24" id="waze" data-name="Flat Line" xmlns="http://www.w3.org/2000/svg" class="icon flat-line"><path id="secondary" d="M13.38,3C8.25,3,6,6.57,6,10.49v.11a2.4,2.4,0,0,1-2.37,2.47A2.27,2.27,0,0,1,3,13a7,7,0,0,0,3.66,4.53h0A2,2,0,0,1,10,18.69h0a17.29,17.29,0,0,0,3.33.3l.62,0,.09,0a2,2,0,0,1,3.47-1.27l.13-.05A8.08,8.08,0,0,0,21,11C21,6.51,18,3,13.38,3Z" style="fill: rgb(44, 169, 188); stroke-width: 2;"></path><path id="primary" d="M6.66,17.52A7,7,0,0,1,3,13a2.27,2.27,0,0,0,.63.08A2.4,2.4,0,0,0,6,10.6v-.11C6,6.57,8.25,3,13.38,3,18,3,21,6.51,21,11a8.08,8.08,0,0,1-3.39,6.62" style="fill: none; stroke: rgb(0, 0, 0); stroke-linecap: round; stroke-linejoin: round; stroke-width: 2;"></path><path id="primary-2" data-name="primary" d="M10,18.69a17.29,17.29,0,0,0,3.33.3l.62,0" style="fill: none; stroke: rgb(0, 0, 0); stroke-linecap: round; stroke-linejoin: round; stroke-width: 2;"></path><path id="primary-3" data-name="primary" d="M18,19a2,2,0,1,1-2-2A2,2,0,0,1,18,19ZM6,19a2,2,0,1,0,2-2A2,2,0,0,0,6,19Z" style="fill: none; stroke: rgb(0, 0, 0); stroke-linecap: round; stroke-linejoin: round; stroke-width: 2;"></path><line id="primary-upstroke" x1="15.95" y1="9" x2="16.05" y2="9" style="fill: none; stroke: rgb(0, 0, 0); stroke-linecap: round; stroke-linejoin: round; stroke-width: 2.5;"></line><line id="primary-upstroke-2" data-name="primary-upstroke" x1="11.05" y1="9" x2="10.95" y2="9" style="fill: none; stroke: rgb(0, 0, 0); stroke-linecap: round; stroke-linejoin: round; stroke-width: 2.5;"></line></svg>